HIERARCHY
ROOT newVegas:Hips
{
	OFFSET 0.000000 96.479958 0.000000
	CHANNELS 6 Xposition Yposition Zposition Xrotation Yrotation Zrotation
	JOINT newVegas:Pelvis
	{
		OFFSET 0.000000 0.000000 0.000000
		CHANNELS 3 Xrotation Yrotation Zrotation
		JOINT newVegas:LeftUpLeg
		{
			OFFSET 18.735201 -5.666702 -4.541200
			CHANNELS 3 Xrotation Yrotation Zrotation
			JOINT newVegas:LeftLeg
			{
				OFFSET -0.021200 -31.938179 0.493100
				CHANNELS 3 Xrotation Yrotation Zrotation
				JOINT newVegas:LeftFoot
				{
					OFFSET 0.021200 -31.938179 -4.336299
					CHANNELS 3 Xrotation Yrotation Zrotation
					JOINT newVegas:LeftToeBase
					{
						OFFSET 0.943001 -26.722000 15.023500
						CHANNELS 3 Xrotation Yrotation Zrotation
						End Site
						{
							OFFSET 0.000000 30.670183 0.000000
						}
					}
				}
				JOINT newVegas:Left_PantLeg
				{
					OFFSET 0.663870 -9.044666 -1.108900
					CHANNELS 3 Xrotation Yrotation Zrotation
					End Site
					{
						OFFSET 1.415995 20.635357 0.000000
					}
				}
			}
		}
		JOINT newVegas:RightUpLeg
		{
			OFFSET -18.735201 -5.666702 -4.541200
			CHANNELS 3 Xrotation Yrotation Zrotation
			JOINT newVegas:RightLeg
			{
				OFFSET 0.018946 -31.938133 0.493100
				CHANNELS 3 Xrotation Yrotation Zrotation
				JOINT newVegas:RightFoot
				{
					OFFSET -0.018946 -31.938126 -4.336299
					CHANNELS 3 Xrotation Yrotation Zrotation
					JOINT newVegas:RightToeBase
					{
						OFFSET -0.943001 -26.722004 15.023500
						CHANNELS 3 Xrotation Yrotation Zrotation
						End Site
						{
							OFFSET 0.000000 30.670187 0.000000
						}
					}
				}
				JOINT newVegas:Right_PantLeg
				{
					OFFSET -0.661674 -9.044716 -1.108900
					CHANNELS 3 Xrotation Yrotation Zrotation
					End Site
					{
						OFFSET -1.415958 20.635269 0.000000
					}
				}
			}
		}
	}
	JOINT newVegas:Spine
	{
		OFFSET 0.000000 10.199997 -0.299500
		CHANNELS 3 Xrotation Yrotation Zrotation
		JOINT newVegas:Spine1
		{
			OFFSET 0.000000 11.900002 -1.516600
			CHANNELS 3 Xrotation Yrotation Zrotation
			JOINT newVegas:Spine2
			{
				OFFSET 0.000000 13.600006 -2.842500
				CHANNELS 3 Xrotation Yrotation Zrotation
				JOINT newVegas:Neck
				{
					OFFSET 0.000000 9.624100 -2.890100
					CHANNELS 3 Xrotation Yrotation Zrotation
					JOINT newVegas:Head
					{
						OFFSET 0.000000 14.068802 -1.351900
						CHANNELS 3 Xrotation Yrotation Zrotation
						JOINT newVegas:Hair_Back
						{
							OFFSET 0.000000 3.231903 -17.524799
							CHANNELS 3 Xrotation Yrotation Zrotation
							End Site
							{
								OFFSET 0.000000 19.849884 0.000000
							}
						}
						JOINT newVegas:Hair_Front
						{
							OFFSET 0.000000 31.260406 4.573800
							CHANNELS 3 Xrotation Yrotation Zrotation
							JOINT newVegas:Hair_Front1
							{
								OFFSET 0.000000 2.284103 11.993300
								CHANNELS 3 Xrotation Yrotation Zrotation
								JOINT newVegas:Hair_Front2
								{
									OFFSET 0.000000 2.284103 11.993300
									CHANNELS 3 Xrotation Yrotation Zrotation
									End Site
									{
										OFFSET 0.000000 12.208862 0.000000
									}
								}
							}
						}
						JOINT newVegas:Jowel
						{
							OFFSET 0.000000 -7.458206 6.864100
							CHANNELS 3 Xrotation Yrotation Zrotation
							End Site
							{
								OFFSET 0.000000 19.849884 0.000000
							}
						}
					}
				}
				JOINT newVegas:LeftShoulder
				{
					OFFSET 15.263000 10.923401 -0.547700
					CHANNELS 3 Xrotation Yrotation Zrotation
					JOINT newVegas:LeftArm
					{
						OFFSET 25.438599 -2.830597 -13.032500
						CHANNELS 3 Xrotation Yrotation Zrotation
						JOINT newVegas:LeftForeArm
						{
							OFFSET 29.960503 0.000000 0.000000
							CHANNELS 3 Xrotation Yrotation Zrotation
							JOINT newVegas:LeftHand
							{
								OFFSET 27.849251 0.000000 0.000000
								CHANNELS 3 Xrotation Yrotation Zrotation
								JOINT newVegas:LeftHandThumb1
								{
									OFFSET 4.487587 -3.305161 6.305391
									CHANNELS 3 Xrotation Yrotation Zrotation
									JOINT newVegas:LeftHandThumb2
									{
										OFFSET 5.480453 -3.164139 3.164143
										CHANNELS 3 Xrotation Yrotation Zrotation
										JOINT newVegas:LeftHandThumb3
										{
											OFFSET 5.159721 -2.978973 2.978967
											CHANNELS 3 Xrotation Yrotation Zrotation
											End Site
											{
												OFFSET 2.494507 5.926697 1.738678
											}
										}
									}
								}
								JOINT newVegas:LeftHandIndex1
								{
									OFFSET 18.578728 -0.527832 5.208049
									CHANNELS 3 Xrotation Yrotation Zrotation
									JOINT newVegas:LeftHandIndex2
									{
										OFFSET 3.192009 0.000000 0.000000
										CHANNELS 3 Xrotation Yrotation Zrotation
										JOINT newVegas:LeftHandIndex3
										{
											OFFSET 3.835129 0.000000 0.000000
											CHANNELS 3 Xrotation Yrotation Zrotation
											End Site
											{
												OFFSET -0.034599 3.816971 0.371180
											}
										}
									}
								}
								JOINT newVegas:LeftHandMiddle1
								{
									OFFSET 18.476105 0.000000 0.000000
									CHANNELS 3 Xrotation Yrotation Zrotation
									JOINT newVegas:LeftHandMiddle2
									{
										OFFSET 3.324875 0.000000 0.000000
										CHANNELS 3 Xrotation Yrotation Zrotation
										JOINT newVegas:LeftHandMiddle3
										{
											OFFSET 4.596550 0.000000 0.000000
											CHANNELS 3 Xrotation Yrotation Zrotation
											End Site
											{
												OFFSET 0.057701 4.578827 0.399218
											}
										}
									}
								}
								JOINT newVegas:LeftHandRing1
								{
									OFFSET 17.732719 0.121887 -4.201567
									CHANNELS 3 Xrotation Yrotation Zrotation
									JOINT newVegas:LeftHandRing2
									{
										OFFSET 2.733170 0.000000 0.000000
										CHANNELS 3 Xrotation Yrotation Zrotation
										JOINT newVegas:LeftHandRing3
										{
											OFFSET 3.178268 0.000000 0.000000
											CHANNELS 3 Xrotation Yrotation Zrotation
											End Site
											{
												OFFSET 0.119102 3.170624 0.185394
											}
										}
									}
								}
								JOINT newVegas:LeftHandPinky1
								{
									OFFSET 15.989624 -0.606689 -7.535461
									CHANNELS 3 Xrotation Yrotation Zrotation
									JOINT newVegas:LeftHandPinky2
									{
										OFFSET 2.538986 0.000000 0.000000
										CHANNELS 3 Xrotation Yrotation Zrotation
										JOINT newVegas:LeftHandPinky3
										{
											OFFSET 2.593102 0.000000 0.000000
											CHANNELS 3 Xrotation Yrotation Zrotation
											End Site
											{
												OFFSET -0.150902 2.584198 0.152708
											}
										}
									}
								}
							}
							JOINT newVegas:Left_Sleeve
							{
								OFFSET 0.267448 -0.649796 0.577675
								CHANNELS 3 Xrotation Yrotation Zrotation
								End Site
								{
									OFFSET 0.000000 15.991241 0.000000
								}
							}
							JOINT newVegas:Left_CapeC
							{
								OFFSET 15.715958 -8.608795 -6.935905
								CHANNELS 3 Xrotation Yrotation Zrotation
								JOINT newVegas:Left_CapeC1
								{
									OFFSET 0.000000 -8.688499 0.000000
									CHANNELS 3 Xrotation Yrotation Zrotation
									End Site
									{
										OFFSET 0.000000 8.688499 0.000000
									}
								}
							}
						}
						JOINT newVegas:Left_CapeB
						{
							OFFSET 26.118385 -8.608795 -7.079235
							CHANNELS 3 Xrotation Yrotation Zrotation
							JOINT newVegas:Left_CapeB1
							{
								OFFSET 0.000000 -8.688499 0.000000
								CHANNELS 3 Xrotation Yrotation Zrotation
								End Site
								{
									OFFSET 0.000000 8.688499 0.000000
								}
							}
						}
						JOINT newVegas:Left_CapeA
						{
							OFFSET 5.115639 -8.608795 -10.395809
							CHANNELS 3 Xrotation Yrotation Zrotation
							JOINT newVegas:Left_CapeA1
							{
								OFFSET 0.000000 -8.688499 0.000000
								CHANNELS 3 Xrotation Yrotation Zrotation
								End Site
								{
									OFFSET 0.000000 8.688499 0.000000
								}
							}
						}
					}
				}
				JOINT newVegas:RightShoulder
				{
					OFFSET -15.263000 10.923401 -0.547700
					CHANNELS 3 Xrotation Yrotation Zrotation
					JOINT newVegas:RightArm
					{
						OFFSET -25.438599 -2.830597 -13.032500
						CHANNELS 3 Xrotation Yrotation Zrotation
						JOINT newVegas:RightForeArm
						{
							OFFSET -29.960503 0.000000 0.000000
							CHANNELS 3 Xrotation Yrotation Zrotation
							JOINT newVegas:RightHand
							{
								OFFSET -27.849251 0.000000 0.000000
								CHANNELS 3 Xrotation Yrotation Zrotation
								JOINT newVegas:RightHandThumb1
								{
									OFFSET -4.487587 -3.305161 6.305391
									CHANNELS 3 Xrotation Yrotation Zrotation
									JOINT newVegas:RightHandThumb2
									{
										OFFSET -5.480453 -3.164139 3.164143
										CHANNELS 3 Xrotation Yrotation Zrotation
										JOINT newVegas:RightHandThumb3
										{
											OFFSET -5.159721 -2.978973 2.978967
											CHANNELS 3 Xrotation Yrotation Zrotation
											End Site
											{
												OFFSET -2.494507 5.926697 1.738678
											}
										}
									}
								}
								JOINT newVegas:RightHandIndex1
								{
									OFFSET -18.578728 -0.527832 5.208049
									CHANNELS 3 Xrotation Yrotation Zrotation
									JOINT newVegas:RightHandIndex2
									{
										OFFSET -3.192009 0.000000 0.000000
										CHANNELS 3 Xrotation Yrotation Zrotation
										JOINT newVegas:RightHandIndex3
										{
											OFFSET -3.835129 0.000000 0.000000
											CHANNELS 3 Xrotation Yrotation Zrotation
											End Site
											{
												OFFSET 0.034599 3.816971 0.371180
											}
										}
									}
								}
								JOINT newVegas:RightHandMiddle1
								{
									OFFSET -18.476105 0.000000 0.000000
									CHANNELS 3 Xrotation Yrotation Zrotation
									JOINT newVegas:RightHandMiddle2
									{
										OFFSET -3.324875 0.000000 0.000000
										CHANNELS 3 Xrotation Yrotation Zrotation
										JOINT newVegas:RightHandMiddle3
										{
											OFFSET -4.596550 0.000000 0.000000
											CHANNELS 3 Xrotation Yrotation Zrotation
											End Site
											{
												OFFSET -0.057701 4.578827 0.399218
											}
										}
									}
								}
								JOINT newVegas:RightHandRing1
								{
									OFFSET -17.732719 0.121887 -4.201567
									CHANNELS 3 Xrotation Yrotation Zrotation
									JOINT newVegas:RightHandRing2
									{
										OFFSET -2.733170 0.000000 0.000000
										CHANNELS 3 Xrotation Yrotation Zrotation
										JOINT newVegas:RightHandRing3
										{
											OFFSET -3.178268 0.000000 0.000000
											CHANNELS 3 Xrotation Yrotation Zrotation
											End Site
											{
												OFFSET -0.119102 3.170624 0.185394
											}
										}
									}
								}
								JOINT newVegas:RightHandPinky1
								{
									OFFSET -15.989624 -0.606689 -7.535461
									CHANNELS 3 Xrotation Yrotation Zrotation
									JOINT newVegas:RightHandPinky2
									{
										OFFSET -2.538986 0.000000 0.000000
										CHANNELS 3 Xrotation Yrotation Zrotation
										JOINT newVegas:RightHandPinky3
										{
											OFFSET -2.593102 0.000000 0.000000
											CHANNELS 3 Xrotation Yrotation Zrotation
											End Site
											{
												OFFSET 0.150902 2.584198 0.152708
											}
										}
									}
								}
							}
							JOINT newVegas:Right_CapeC
							{
								OFFSET -15.715958 -8.608795 -6.935905
								CHANNELS 3 Xrotation Yrotation Zrotation
								JOINT newVegas:Right_CapeC1
								{
									OFFSET 0.000000 -8.688499 0.000000
									CHANNELS 3 Xrotation Yrotation Zrotation
									End Site
									{
										OFFSET 0.000000 8.688499 0.000000
									}
								}
							}
							JOINT newVegas:Right_Sleeve
							{
								OFFSET -0.267448 -0.649994 0.577675
								CHANNELS 3 Xrotation Yrotation Zrotation
								End Site
								{
									OFFSET 0.000000 15.991302 0.000000
								}
							}
						}
						JOINT newVegas:Right_CapeA
						{
							OFFSET -5.115540 -8.608795 -10.395824
							CHANNELS 3 Xrotation Yrotation Zrotation
							JOINT newVegas:Right_CapeA1
							{
								OFFSET 0.000000 -8.688499 0.000000
								CHANNELS 3 Xrotation Yrotation Zrotation
								End Site
								{
									OFFSET 0.000000 8.688499 0.000000
								}
							}
						}
						JOINT newVegas:Right_CapeB
						{
							OFFSET -26.118187 -8.608795 -7.079266
							CHANNELS 3 Xrotation Yrotation Zrotation
							JOINT newVegas:Right_CapeB1
							{
								OFFSET 0.000000 -8.688499 0.000000
								CHANNELS 3 Xrotation Yrotation Zrotation
								End Site
								{
									OFFSET 0.000000 8.688499 0.000000
								}
							}
						}
					}
				}
				JOINT newVegas:Left_Collar
				{
					OFFSET 18.625099 8.655502 8.828100
					CHANNELS 3 Xrotation Yrotation Zrotation
					JOINT newVegas:Left_Collar1
					{
						OFFSET 14.783401 10.540405 -1.259500
						CHANNELS 3 Xrotation Yrotation Zrotation
						End Site
						{
							OFFSET 0.000000 18.199875 0.000000
						}
					}
				}
				JOINT newVegas:Collar_Back
				{
					OFFSET 0.000000 15.630707 -20.132601
					CHANNELS 3 Xrotation Yrotation Zrotation
					End Site
					{
						OFFSET 0.000000 22.523010 0.000000
					}
				}
				JOINT newVegas:Left_Peck
				{
					OFFSET 17.239599 -5.132599 25.482599
					CHANNELS 3 Xrotation Yrotation Zrotation
					End Site
					{
						OFFSET 0.000000 22.523010 0.000000
					}
				}
				JOINT newVegas:Right_Peck
				{
					OFFSET -17.239599 -5.132202 25.482599
					CHANNELS 3 Xrotation Yrotation Zrotation
					End Site
					{
						OFFSET 0.000000 22.523010 0.000000
					}
				}
				JOINT newVegas:Right_Collar
				{
					OFFSET -18.625099 8.655792 8.828100
					CHANNELS 3 Xrotation Yrotation Zrotation
					JOINT newVegas:Right_Collar1
					{
						OFFSET -14.783401 10.539993 -1.259500
						CHANNELS 3 Xrotation Yrotation Zrotation
						End Site
						{
							OFFSET 0.000000 18.199631 0.000000
						}
					}
				}
			}
		}
		JOINT newVegas:Belly
		{
			OFFSET 0.000000 -6.540398 9.014299
			CHANNELS 3 Xrotation Yrotation Zrotation
			End Site
			{
				OFFSET 0.000000 11.566666 0.000000
			}
		}
	}
	JOINT newVegas:ElvisFacialAnim_Joint
	{
		OFFSET 1.000000 -95.330101 -8.825800
		CHANNELS 3 Xrotation Yrotation Zrotation
		End Site
		{
			OFFSET 0.000000 35.315800 0.000000
		}
	}
}
MOTION
Frames: 4
Frame Time: 0.033333
1.014054 91.319145 183.773499 3.025704 24.250337 0.321182 0.000000 0.000003 -0.000000 -28.495035 -9.129712 0.457922 53.432915 -0.862447 -1.795623 -1.734367 11.844407 -5.071113 0.000000 0.000001 0.000000 0.000001 0.000001 -0.000000 -23.507353 -9.548166 -1.066412 42.270016 -0.100468 1.524197 -20.651401 -12.613013 -3.113625 -0.000000 0.000000 -0.000000 -0.000000 -0.000001 -0.000000 7.756295 -1.066759 0.626632 15.521308 -2.086183 1.158526 15.521309 -2.086178 1.158523 0.708075 1.932381 0.460484 0.708072 1.932383 0.460487 -0.000001 -0.000001 -0.000001 0.708080 1.932369 0.460486 0.708113 1.932407 0.460476 0.000002 0.000001 0.000002 -0.000001 -0.000001 -0.000000 0.499905 -1.587188 -4.244698 12.787454 -78.508510 4.993148 4.336604 -61.882791 3.826269 11.281863 -5.115771 -13.144732 -0.296382 4.021052 2.074362 6.011280 16.643177 3.277948 -0.000000 -0.000006 -0.000000 -4.702413 7.331569 -46.634619 3.480844 7.173293 -50.337125 -0.000001 0.000001 0.000001 -5.595654 5.516678 -61.601346 -1.379984 3.019754 -62.988203 -0.000001 -0.000001 0.000000 -2.609701 1.093375 -67.911369 -3.500613 -3.988069 -68.023077 -0.000001 0.000001 0.000000 -5.287008 -4.510015 -78.076350 -11.536906 -10.798093 -76.834909 -0.000001 -0.000003 -0.000001 0.000001 0.000001 0.000001 0.000001 0.000001 0.000001 0.000000 0.000001 0.000000 0.000001 -0.000002 -0.000000 0.000001 -0.000002 -0.000001 0.000001 -0.000002 -0.000000 0.000000 -0.000001 0.000001 0.607280 6.732530 9.023120 -10.106540 41.319182 35.516195 -2.811470 111.738644 2.612173 29.029168 -11.684166 -36.872998 -8.713074 -4.066399 -5.509780 0.359591 -1.630898 0.557842 0.000000 -0.000000 -0.000001 -10.876728 -8.595398 9.802272 0.084590 -0.957705 12.600191 -0.000004 0.000001 0.000005 -0.355275 -5.828114 19.909580 -0.336716 1.221524 22.545433 -0.000002 -0.000002 -0.000002 2.489427 -9.257873 26.497239 -0.325671 0.427878 24.371300 -0.000002 0.000001 -0.000001 11.184901 -11.519660 35.001861 -0.671082 2.362227 22.173572 -0.000001 0.000003 -0.000001 0.000001 0.000000 -0.000000 0.000001 0.000000 -0.000000 0.000001 0.000000 0.000000 -0.000002 -0.000001 -0.000002 -0.000002 0.000000 -0.000002 -0.000002 -0.000001 -0.000002 -0.000002 -0.000000 -0.000002 0.000000 0.000000 -0.000000 0.000000 0.000000 -0.000000 0.000000 0.000000 -0.000000 0.000000 0.000000 -0.000000 0.000000 0.000000 -0.000000 0.000000 0.000000 -0.000000 0.000000 0.000000 -0.000000 -0.000000 -0.000000 -0.000000 0.000000 0.000003 -0.000000 
0.973832 91.531906 185.459702 3.989234 25.051416 0.398743 0.000000 -0.000001 -0.000000 -31.371458 -7.470862 -0.772719 52.041226 -0.855317 -1.761261 -2.417885 11.596339 -4.282348 0.000002 0.000000 -0.000000 0.000001 -0.000003 0.000002 -22.401644 -10.418109 -0.967049 41.244999 -0.239128 1.477987 -21.400636 -12.486781 -3.765374 0.000000 -0.000000 0.000000 0.000002 0.000002 -0.000001 8.008442 -1.073018 0.689542 16.027041 -2.076284 1.297227 16.027032 -2.076286 1.297226 0.882817 1.858340 0.465721 0.882795 1.858348 0.465713 -0.000001 -0.000000 -0.000001 0.882814 1.858333 0.465722 0.882865 1.858375 0.465716 -0.000000 0.000001 0.000001 -0.000001 -0.000000 -0.000000 0.485728 -1.349548 -4.089203 12.445297 -80.045084 5.720082 4.677880 -60.971186 4.092187 10.728433 -6.087316 -13.422633 -0.296377 4.021042 2.074352 6.011270 16.643168 3.277931 0.000003 -0.000003 0.000000 -4.702423 7.331561 -46.634619 3.480842 7.173277 -50.337111 -0.000002 -0.000003 -0.000004 -5.595666 5.516678 -61.601346 -1.379988 3.019751 -62.988209 -0.000001 -0.000000 0.000000 -2.609704 1.093364 -67.911376 -3.500620 -3.988074 -68.023077 -0.000004 -0.000001 0.000001 -5.286989 -4.510036 -78.076364 -11.536923 -10.798068 -76.834909 -0.000002 -0.000005 -0.000001 -0.000002 0.000000 -0.000000 -0.000002 0.000000 -0.000000 -0.000003 0.000000 0.000000 0.000001 -0.000002 0.000002 0.000002 -0.000002 0.000001 0.000001 -0.000002 0.000002 0.000001 -0.000001 0.000002 0.608226 6.648476 8.970462 -10.726315 42.940037 34.086722 -3.282514 110.221946 3.080943 28.383582 -10.071420 -32.968302 -7.106494 -1.777887 -4.402692 0.359614 -1.630897 0.557835 0.000002 -0.000004 -0.000001 -10.876734 -8.595396 9.802270 -5.110213 -5.246906 14.187826 -0.000001 0.000000 0.000003 -5.462547 -8.477184 15.535267 -5.190122 -3.588960 17.139670 -0.000002 -0.000002 -0.000001 -3.756066 -13.598012 19.899845 -4.901917 -4.577358 21.400463 -0.000003 -0.000001 -0.000001 0.766271 -18.862882 22.832665 -5.208710 -2.708788 21.433398 0.000001 -0.000000 -0.000000 0.000002 0.000001 0.000001 0.000002 0.000001 0.000002 0.000002 0.000001 0.000001 0.000001 0.000001 -0.000000 0.000001 0.000000 -0.000000 0.000001 0.000001 -0.000000 0.000001 -0.000000 -0.000000 0.000002 0.000001 -0.000001 0.000002 0.000001 -0.000001 0.000002 0.000001 -0.000001 0.000002 0.000001 -0.000001 0.000002 0.000001 -0.000001 0.000002 0.000001 -0.000001 0.000002 0.000001 -0.000001 0.000000 -0.000000 -0.000000 0.000000 -0.000001 -0.000000 
1.177154 91.809601 187.123505 5.101475 25.899830 0.679879 -0.000000 -0.000002 -0.000000 -32.821531 -6.088359 -2.424898 46.967847 -0.792065 -1.628683 -3.138991 10.693412 -4.319385 -0.000000 -0.000000 0.000000 -0.000002 0.000001 -0.000000 -21.325847 -10.979422 -1.375257 40.153815 -0.388467 1.426293 -22.324499 -12.622946 -3.724234 0.000000 0.000000 0.000000 0.000002 0.000001 0.000000 8.223916 -1.089293 0.751650 16.458434 -2.101779 1.392678 16.458423 -2.101776 1.392675 1.059672 1.788336 0.448360 1.059667 1.788344 0.448331 -0.000003 0.000000 -0.000001 1.059671 1.788231 0.448379 1.059642 1.788386 0.448351 0.000001 0.000002 -0.000000 -0.000003 0.000000 0.000000 0.471170 -1.129001 -3.901246 15.105392 -81.490673 9.397553 4.556717 -60.015315 3.948731 10.015238 -7.267456 -13.449912 -0.296375 4.021054 2.074349 6.011277 16.643175 3.277932 0.000004 -0.000004 -0.000001 -4.702407 7.331558 -46.634616 3.480816 7.173276 -50.337114 0.000001 -0.000003 -0.000000 -5.595659 5.516688 -61.601360 -1.379983 3.019746 -62.988223 -0.000002 -0.000001 0.000001 -2.609693 1.093377 -67.911382 -3.500639 -3.988066 -68.023083 -0.000003 0.000001 0.000002 -5.286994 -4.510011 -78.076357 -11.536923 -10.798097 -76.834895 0.000002 -0.000005 0.000004 -0.000001 -0.000003 0.000003 -0.000001 -0.000003 0.000003 -0.000002 -0.000003 0.000003 -0.000002 0.000001 -0.000000 -0.000002 0.000002 -0.000003 -0.000002 0.000001 -0.000000 -0.000003 0.000001 -0.000000 0.606847 6.727942 9.036794 -11.619742 44.848221 32.774434 -4.137897 107.575432 3.945702 27.447445 -7.371357 -26.919469 -3.166407 4.086401 -2.157666 0.359587 -1.630889 0.557834 0.000000 -0.000001 0.000001 -10.876724 -8.595409 9.802273 -10.097186 -9.800072 15.092823 0.000002 0.000000 0.000001 -10.940676 -10.388585 10.838525 -10.910233 -7.403322 11.104849 -0.000000 -0.000001 -0.000002 -10.910834 -16.565587 12.579848 -10.037761 -9.053390 17.646437 0.000002 0.000001 -0.000001 -11.676126 -21.880028 9.076322 -9.892244 -7.456856 19.987206 -0.000000 -0.000000 -0.000001 0.000001 0.000000 -0.000001 0.000002 -0.000001 -0.000001 0.000001 0.000000 0.000000 0.000000 0.000000 0.000002 0.000000 0.000000 0.000000 0.000000 0.000000 0.000002 0.000000 0.000000 0.000002 0.000000 0.000000 -0.000000 0.000000 0.000000 -0.000000 0.000000 0.000000 -0.000000 0.000000 0.000000 -0.000000 0.000000 0.000000 -0.000000 0.000000 0.000000 -0.000000 0.000000 0.000000 -0.000000 -0.000001 0.000001 -0.000000 -0.000000 -0.000002 -0.000000 
1.374044 92.037025 188.856598 6.058028 26.126606 0.671162 0.000000 0.000001 -0.000000 -33.102375 -5.090623 -3.132001 39.699774 -0.736903 -1.426315 -3.066741 9.104026 -6.073621 0.000001 -0.000000 -0.000000 -0.000001 0.000000 0.000000 -20.203102 -10.994950 -1.074959 38.812092 -0.599997 1.357630 -22.496205 -12.630158 -4.074041 0.000000 -0.000000 0.000000 -0.000001 0.000001 -0.000001 8.364060 -0.998668 0.769575 16.736465 -1.938003 1.361609 16.736475 -1.938002 1.361612 1.281305 1.726872 0.413622 1.281299 1.726874 0.413623 -0.000003 0.000000 -0.000000 1.281244 1.726884 0.413616 1.281290 1.726877 0.413620 -0.000001 -0.000001 0.000001 -0.000003 0.000000 0.000000 0.459804 -0.952850 -3.788157 22.291273 -82.961534 17.227860 4.227668 -58.330335 3.599737 9.322643 -8.519801 -13.799131 -0.296357 4.021044 2.074361 6.011267 16.643189 3.277940 0.000001 -0.000004 0.000000 -4.702419 7.331559 -46.634616 3.480837 7.173284 -50.337108 0.000000 -0.000001 0.000002 -5.595635 5.516670 -61.601340 -1.379997 3.019744 -62.988223 0.000000 -0.000001 0.000001 -2.609664 1.093359 -67.911362 -3.500647 -3.988077 -68.023083 0.000002 -0.000001 -0.000000 -5.286970 -4.510023 -78.076357 -11.536928 -10.798091 -76.834895 -0.000004 -0.000003 0.000001 0.000002 -0.000002 0.000002 0.000002 -0.000002 0.000002 0.000001 -0.000002 0.000001 -0.000003 -0.000002 -0.000001 -0.000002 -0.000002 -0.000003 -0.000003 -0.000002 -0.000001 -0.000003 -0.000001 -0.000001 0.603057 6.964043 9.202655 -12.026799 45.981291 31.039672 -5.391909 104.679261 5.217251 25.622024 -3.809526 -20.211894 1.921110 11.880606 -0.288592 0.359606 -1.630888 0.557848 0.000001 -0.000001 0.000001 -10.872231 -8.605617 10.056251 -9.554215 -9.565058 15.803482 0.000002 -0.000002 -0.000000 -10.437532 -10.289271 11.597552 -10.245983 -7.250552 12.808088 0.000000 -0.000001 0.000000 -10.216623 -16.456502 13.824103 -9.355358 -8.855219 19.631541 -0.000001 0.000001 -0.000001 -10.535191 -22.001923 11.092407 -9.248257 -7.146158 21.983997 0.000001 -0.000000 -0.000000 0.000001 0.000000 0.000000 0.000001 0.000000 -0.000001 0.000001 0.000000 0.000001 -0.000001 -0.000001 0.000001 -0.000000 -0.000001 0.000001 -0.000001 -0.000001 0.000001 -0.000000 -0.000001 0.000001 0.000003 0.000000 -0.000000 0.000003 0.000000 -0.000000 0.000003 0.000000 -0.000000 0.000003 0.000000 -0.000000 0.000003 0.000000 -0.000000 0.000003 0.000000 -0.000000 0.000003 0.000000 -0.000000 0.000000 -0.000001 -0.000000 0.000000 0.000001 -0.000000 
